<svg xmlns="http://www.w3.org/2000/svg" viewBox="0 0 328 155" role="img" aria-label="3ade wordmark">
<title>3ade wordmark</title>

<path fill="#62664A" fill-rule="evenodd" d="M10.075 31.5 C14.37 31.931 19.083 31.84 23.464 31.5 C23.958 28.975 23.787 26.76 25.5 24.62 C28.291 21.135 41.781 21.205 44.5 24.75 C48.147 29.505 46.088 37.707 39.5 37.902 L27.5 37.961 C26.949 41.553 27.122 45.664 27.138 49.5 C32.165 50.685 38.52 48.848 43.5 51.139 C48.12 53.264 47.819 62.107 44.5 65.085 C40.83 68.377 28.142 68.366 24.87 64.5 C23.302 62.647 23.628 59.65 22.5 57.75 L10.5 57.788 C5.912 75.158 21.92 79.521 35.5 79.613 C52.065 79.726 64.632 72.208 60.317 53.5 C59.164 48.502 56.607 46.201 52.452 43.5 C61.748 37.325 63.559 21.975 54.32 14.5 C48.947 10.152 42.11 10.085 35.5 10.068 C19.805 10.029 8.816 13.181 10.075 31.5 Z"/>
<path fill="#20221F" fill-rule="evenodd" d="M67.385 83.5 C72.775 84.346 79.028 84.035 84.5 83.569 C85.016 80.455 84.957 77.302 87.5 74.98 C92.359 70.543 115.383 70.079 120.174 74.5 C124.102 78.125 123.117 84.767 122.7 89.5 C106.32 92.189 85.202 87.86 71.5 99.299 C61.287 107.825 63.481 134.399 75.5 140.859 C86.297 146.661 102.955 146.757 114.5 142.932 C117.793 141.841 120.672 139.31 123.5 137.882 C123.581 139.766 123.001 143.011 124.261 144.5 C124.595 144.895 138.701 144.334 140.5 144.096 C142.574 126.154 140.814 106.693 140.786 88.5 C140.772 79.294 140.631 68.972 133.5 62.139 C126.382 55.32 115.798 55.135 106.5 55.113 C85.774 55.065 65.889 57.488 67.385 83.5 Z M120.5 104.482 C111.099 105.265 94.354 104.136 86.5 109.172 C80.645 112.927 82.115 124.13 87.5 127.129 C95.063 130.104 115.033 130.259 120.5 123.239 C123.479 119.414 124.729 108.86 122.677 104.5 C122.419 103.953 120.891 104.485 120.5 104.482 Z"/>
<path fill="#20221F" fill-rule="evenodd" d="M211.5 17.19 C208.318 28.286 211.666 47.08 210.5 59.541 C202.77 56.124 196.035 55.1 187.5 55.044 C182.136 55.009 176.747 54.888 171.5 56.188 C149.64 61.604 151.044 84.308 151.22 102.5 C151.323 113.085 150.222 124.133 156.089 133.5 C165.857 149.095 197.248 148.189 210.5 138.378 C211.018 140.25 211.22 142.428 211.5 144.403 C215.275 144.727 225.633 146.123 228.5 143.5 C228.777 143.247 228.567 122.678 228.559 120.5 C228.464 97.501 228.878 74.496 228.572 51.5 L228.637 26.5 C228.628 24.635 229.567 18.8 228.136 17.5 C227.182 16.633 213.726 17.192 211.5 17.19 Z M178.5 72.287 C166.245 76.348 169.38 90.051 169.38 100.5 C169.38 107.501 167.906 116.016 171.056 122.5 C175.202 131.036 193.182 129.266 200.5 127.402 C203.676 126.325 207.091 124.756 208.705 121.5 C212.743 113.356 212.578 84.027 207.544 76.5 C202.566 69.056 185.909 71.345 178.5 72.287 Z"/>
<path fill="#20221F" fill-rule="evenodd" d="M264.5 55.454 C234.223 61.513 239.451 82.415 239.319 107.5 C239.259 119.07 239.265 134.714 251.5 140.8 C263.237 146.638 296.318 148.332 306.909 139.5 C311.48 135.688 319.954 123.808 317.303 117.5 C316.73 116.136 312.731 116.8 311.5 116.809 C308.437 116.832 302.242 115.597 299.5 116.816 C298.685 117.178 298.708 119.728 298.617 120.5 C295.556 128.861 287.085 128.324 279.5 128.324 C264.213 128.323 255.048 126.739 257.222 108.5 C257.381 107.166 266.87 107.445 268.5 107.432 L304.5 107.489 C306.688 107.476 317.594 108.136 317.617 106.5 C317.786 94.563 319.452 80.785 314.817 69.5 C307.74 52.272 279.543 53.786 264.5 55.454 Z M257.5 91.744 C265.612 92.766 292.756 93.486 299.794 91.5 C299.679 85.823 300.244 80.255 296.668 75.5 C293.279 70.995 285.317 71.817 280.5 71.831 C264.024 71.877 255.781 72.702 257.5 91.744 Z"/>
</svg>
